<svg width="34" height="34" viewBox="0 0 34 34" fill="none" xmlns="http://www.w3.org/2000/svg">
<g clip-path="url(#clip0)">
<path d="M29.1325 9.7047C31.4303 9.7047 33.2997 7.83531 33.2997 5.53753C33.2997 3.23975 31.4303 1.37036 29.1325 1.37036C26.8347 1.37036 24.9653 3.23975 24.9653 5.53753C24.9653 7.83531 26.8347 9.7047 29.1325 9.7047ZM29.1325 2.36786C30.8803 2.36786 32.3022 3.78977 32.3022 5.53753C32.3022 7.28529 30.8803 8.70719 29.1325 8.70719C27.3847 8.70719 25.9628 7.28529 25.9628 5.53753C25.9628 3.78977 27.3847 2.36786 29.1325 2.36786Z" fill="#C4C4C4"/>
<path d="M0.450644 27.9293C1.37885 28.0194 1.9443 28.2992 2.54301 28.5954C3.32877 28.9841 4.1414 29.3861 5.68833 29.3951C7.24111 29.4058 8.06026 28.9912 8.78365 28.6269C9.45929 28.2867 10.0978 27.9651 11.3796 27.9651C11.3945 27.9651 11.4095 27.9651 11.4246 27.9653C12.7364 27.9729 13.3781 28.3054 14.0574 28.6575C14.7765 29.0301 15.5915 29.4525 17.1434 29.4615C18.6961 29.4711 19.5154 29.0575 20.2388 28.6933C20.9223 28.3491 21.5681 28.0239 22.8797 28.0316C24.1917 28.0392 24.8334 28.3718 25.5128 28.7238C26.232 29.0965 27.047 29.5189 28.5991 29.5278C28.6157 29.528 28.6323 29.528 28.6488 29.528C30.1686 29.528 30.9789 29.1201 31.6947 28.7598C32.2328 28.4889 32.7411 28.2331 33.559 28.1378C33.8326 28.1059 34.0286 27.8583 33.9967 27.5847C33.9649 27.3111 33.7179 27.1154 33.4436 27.147C32.4504 27.2626 31.8383 27.5708 31.2463 27.8688C30.5626 28.2129 29.9161 28.5373 28.6049 28.5303C27.293 28.5228 26.6512 28.1902 25.9719 27.8381C25.2527 27.4655 24.4377 27.0431 22.8857 27.0341C21.5516 27.0269 20.7562 27.3318 20.0989 27.6492V26.9146C20.0989 26.6391 19.8756 26.4158 19.6002 26.4158C19.3247 26.4158 19.1014 26.6391 19.1014 26.9146V28.125C18.8638 28.2212 18.606 28.3046 18.3043 28.3645C18.305 28.3542 18.3059 28.3438 18.3059 28.3333V20.7756C18.3182 20.7758 18.3303 20.7765 18.3425 20.7765H19.0471C19.0653 20.7765 19.0833 20.7755 19.1013 20.7751V24.9196C19.1013 25.1951 19.3247 25.4184 19.6001 25.4184C19.8755 25.4184 20.0988 25.1951 20.0988 24.9196V20.5415C20.8311 20.1965 21.3683 19.5035 21.495 18.6769H24.5491C25.0036 18.6769 25.3734 18.3071 25.3734 17.8525V16.1218C25.3734 15.6673 25.0036 15.2975 24.5491 15.2975H23.5045V12.2179H24.7145C24.9899 12.2179 25.2132 11.9946 25.2132 11.7192C25.2132 11.4437 24.9899 11.2204 24.7145 11.2204H20.8049V9.18763C20.8049 9.18258 20.8043 9.17759 20.8042 9.17253C21.735 8.9602 22.4319 8.12629 22.4319 7.13211C22.4319 5.97787 21.4929 5.03882 20.3386 5.03882C19.1844 5.03882 18.2454 5.97787 18.2454 7.13211C18.2454 8.10341 18.9104 8.92223 19.809 9.15737C19.8084 9.16741 19.8075 9.17739 19.8075 9.18763V11.2205H12.8291V9.18763C12.8291 9.18258 12.8285 9.17759 12.8284 9.17253C13.7592 8.9602 14.4561 8.12629 14.4561 7.13211C14.4561 5.97787 13.5171 5.03882 12.3628 5.03882C11.2086 5.03882 10.2695 5.97787 10.2695 7.13211C10.2695 8.10341 10.9346 8.92223 11.8332 9.15737C11.8326 9.16741 11.8317 9.17739 11.8317 9.18763V11.2205H4.83447V9.18763C4.83447 9.18258 4.83387 9.17759 4.83374 9.17253C5.76454 8.9602 6.46146 8.12629 6.46146 7.13211C6.46146 5.97787 5.52241 5.03882 4.36817 5.03882C3.21392 5.03882 2.27488 5.97787 2.27488 7.13211C2.27488 8.10341 2.93994 8.92223 3.83856 9.15737C3.83796 9.16741 3.83703 9.17739 3.83703 9.18763V11.2205H0.582514C0.30707 11.2205 0.0837627 11.4438 0.0837627 11.7192C0.0837627 11.9947 0.30707 12.218 0.582514 12.218H1.16978V15.2975H0.908032C0.453504 15.2975 0.0837627 15.6673 0.0837627 16.1219V17.8526C0.0837627 18.3071 0.45357 18.6769 0.908032 18.6769H1.63195C1.7597 19.5102 2.30467 20.2075 3.04581 20.5496V22.9247C3.04581 23.2001 3.26912 23.4235 3.54456 23.4235C3.82001 23.4235 4.04332 23.2001 4.04332 22.9247V20.7757C4.05555 20.7759 4.06765 20.7766 4.07989 20.7766H4.78446C4.80268 20.7766 4.82064 20.7756 4.83872 20.7752V28.3383C4.53661 28.2955 4.2744 28.2313 4.03527 28.1538C4.04019 28.1257 4.04325 28.0969 4.04325 28.0673V24.9196C4.04325 24.6442 3.81994 24.4209 3.5445 24.4209C3.26905 24.4209 3.04575 24.6442 3.04575 24.9196V27.7311C3.0256 27.7212 3.00545 27.7112 2.98523 27.7013C2.33233 27.3783 1.65716 27.0443 0.546936 26.9365C0.272956 26.9099 0.0289 27.1106 0.00236647 27.3847C-0.0242336 27.6588 0.176464 27.9027 0.450644 27.9293V27.9293ZM11.3988 26.9678V20.7756C11.411 20.7758 11.4231 20.7765 11.4354 20.7765H12.14C12.1582 20.7765 12.1762 20.7755 12.1942 20.7751V27.0096C11.9606 26.9843 11.7074 26.9693 11.4304 26.9677C11.4196 26.9677 11.4094 26.9679 11.3988 26.9678V26.9678ZM12.14 19.779H11.4354C10.7501 19.779 10.1722 19.3104 10.0051 18.6768H13.5703C13.4031 19.3104 12.8253 19.779 12.14 19.779V19.779ZM17.3259 28.4627C17.2683 28.4637 17.2097 28.4643 17.1493 28.464C15.8374 28.4564 15.1957 28.1238 14.5164 27.7718C14.1341 27.5737 13.7247 27.3615 13.1918 27.2049V20.5415C13.924 20.1965 14.4612 19.5035 14.588 18.6769H15.8945C16.0223 19.5102 16.5672 20.2074 17.3084 20.5495V28.3334C17.3083 28.3781 17.3148 28.4214 17.3259 28.4627V28.4627ZM19.047 19.779H18.3424C17.6571 19.779 17.0793 19.3104 16.9122 18.6768H20.4773C20.3102 19.3104 19.7324 19.779 19.047 19.779ZM22.507 15.2975H20.8373V12.2179H22.507V15.2975ZM18.1701 15.2975V12.2179H19.8398V15.2975H18.1701ZM15.503 15.2975V12.2179H17.1726V15.2975H15.503ZM12.8359 15.2975V12.2179H14.5055V15.2975H12.8359ZM10.1688 15.2975V12.2179H11.8384V15.2975H10.1688ZM7.50159 15.2975V12.2179H9.17121V15.2975H7.50159ZM4.83447 15.2975V12.2179H6.50409V15.2975H4.83447ZM19.2428 7.13211C19.2428 6.52789 19.7344 6.03632 20.3386 6.03632C20.9428 6.03632 21.4344 6.52789 21.4344 7.13211C21.4344 7.73633 20.9428 8.2279 20.3386 8.2279C19.7344 8.2279 19.2428 7.73633 19.2428 7.13211ZM11.267 7.13211C11.267 6.52789 11.7586 6.03632 12.3628 6.03632C12.967 6.03632 13.4586 6.52789 13.4586 7.13211C13.4586 7.73633 12.967 8.2279 12.3628 8.2279C11.7586 8.2279 11.267 7.73633 11.267 7.13211ZM3.27231 7.13211C3.27231 6.52789 3.76388 6.03632 4.3681 6.03632C4.97232 6.03632 5.46389 6.52789 5.46389 7.13211C5.46389 7.73633 4.97232 8.2279 4.3681 8.2279C3.76388 8.2279 3.27231 7.73633 3.27231 7.13211V7.13211ZM2.16728 12.2179H3.8369V15.2975H2.16728V12.2179ZM1.08127 16.295H24.3758V17.6793H1.08127V16.295ZM4.07996 19.779C3.39461 19.779 2.81679 19.3104 2.64967 18.6768H6.21481C6.0477 19.3104 5.46988 19.779 4.78453 19.779H4.07996ZM7.23253 18.6769H8.9874C9.11515 19.5102 9.66012 20.2074 10.4013 20.5495V27.0321C9.47744 27.1611 8.87921 27.462 8.3351 27.736C7.67682 28.0674 7.05404 28.3835 5.83636 28.3973V20.5415C6.56853 20.1965 7.10578 19.5035 7.23253 18.6769V18.6769Z" fill="#C4C4C4"/>
<path d="M33.4434 30.2486C32.4501 30.3642 31.838 30.6724 31.246 30.9704C30.5624 31.3145 29.9171 31.6423 28.6047 31.6319C27.2927 31.6243 26.651 31.2918 25.9716 30.9397C25.2525 30.5671 24.4374 30.1447 22.8854 30.1357C22.8688 30.1357 22.8522 30.1356 22.8357 30.1356C21.3159 30.1356 20.5058 30.5435 19.7901 30.9039C19.1066 31.2481 18.4631 31.5747 17.1491 31.5655C15.8373 31.5579 15.1956 31.2253 14.5162 30.8733C13.7972 30.5007 12.9821 30.0783 11.4302 30.0693C9.87731 30.0592 9.05836 30.4732 8.33497 30.8375C7.65148 31.1816 7.00663 31.5079 5.69405 31.4991C4.37728 31.4915 3.70111 31.157 2.98523 30.8028C2.33233 30.4799 1.65716 30.1458 0.546936 30.038C0.272956 30.0117 0.0289 30.2121 0.00236649 30.4862C-0.0242336 30.7604 0.176464 31.0043 0.450578 31.0309C1.37879 31.121 1.94424 31.4007 2.54294 31.6969C3.3287 32.0857 4.14134 32.4877 5.68826 32.4967C7.24104 32.5055 8.06019 32.0928 8.78358 31.7285C9.45922 31.3882 10.0978 31.0667 11.3795 31.0667C11.3944 31.0667 11.4094 31.0667 11.4245 31.0668C12.7363 31.0744 13.378 31.407 14.0574 31.759C14.7765 32.1317 15.5915 32.5541 17.1434 32.563C18.696 32.5739 19.5153 32.1592 20.2388 31.7948C20.9223 31.4507 21.568 31.1258 22.8797 31.1332C24.1917 31.1408 24.8333 31.4734 25.5128 31.8254C26.2319 32.1981 27.047 32.6204 28.599 32.6294C28.6157 32.6295 28.6321 32.6295 28.6486 32.6295C30.1684 32.6295 30.9789 32.2216 31.6947 31.8613C32.2327 31.5905 32.741 31.3346 33.5589 31.2394C33.8325 31.2075 34.0285 30.9599 33.9966 30.6863C33.9646 30.4127 33.7176 30.2168 33.4434 30.2486V30.2486Z" fill="#C4C4C4"/>
</g>
<defs>
<clipPath id="clip0">
<rect width="34" height="34" fill="white"/>
</clipPath>
</defs>
</svg>
